<svg xmlns="http://www.w3.org/2000/svg" width="125.897" height="36.956" viewBox="0 0 125.897 36.956">
  <g id="Group_68" data-name="Group 68" transform="translate(-140 71)">
    <g id="Group_64" data-name="Group 64" transform="translate(-90 -9877.362)">
      <path id="Path_61" data-name="Path 61" d="M104.384,1.519h-1.423a.6.6,0,0,0-.6.4l-4.9,12.48L92.6,1.917a.607.607,0,0,0-.6-.4H90.543c-.363,0-.53.2-.395.561l6.354,15.6a.608.608,0,0,0,.6.395h.7a.6.6,0,0,0,.6-.395l6.392-15.6c.132-.363-.035-.561-.4-.561" transform="translate(203.711 9811.109)" fill="#fff"/>
      <path id="Path_62" data-name="Path 62" d="M197.744,1.519h-1.157a.557.557,0,0,0-.6.6v15.36a.556.556,0,0,0,.6.6h1.157a.555.555,0,0,0,.6-.6V2.115a.556.556,0,0,0-.6-.6" transform="translate(116.407 9811.109)" fill="#fff"/>
      <path id="Path_63" data-name="Path 63" d="M235.475,6.856c-1.621-.564-3.31-1.16-3.31-2.618,0-1.389,1.555-2.251,3.244-2.251a6.234,6.234,0,0,1,2.947.828.537.537,0,0,0,.828-.166l.429-.727a.513.513,0,0,0-.2-.8A7.914,7.914,0,0,0,235.343,0c-3.113,0-5.4,1.79-5.4,4.4,0,2.715,2.483,3.708,4.37,4.436,2.552.994,3.809,1.821,3.809,3.245,0,1.26-.959,2.649-3.144,2.649a8.631,8.631,0,0,1-3.643-.959.527.527,0,0,0-.8.263l-.46.994a.54.54,0,0,0,.263.8,11.539,11.539,0,0,0,4.8,1.257c3.047,0,5.4-2.154,5.4-4.834,0-2.649-2.351-4.47-5.066-5.395" transform="translate(88.41 9812.362)" fill="#fff"/>
      <path id="Path_64" data-name="Path 64" d="M313.959,1.519H312.8a.556.556,0,0,0-.6.6v15.36a.555.555,0,0,0,.6.6h1.16a.555.555,0,0,0,.6-.6V2.115a.556.556,0,0,0-.6-.6" transform="translate(20.587 9811.109)" fill="#fff"/>
      <path id="Path_65" data-name="Path 65" d="M355.077,0a8.543,8.543,0,1,0,8.539,8.542A8.563,8.563,0,0,0,355.077,0m0,14.769a6.209,6.209,0,1,1,6.191-6.226,6.217,6.217,0,0,1-6.191,6.226" transform="translate(-7.719 9812.363)" fill="#fff"/>
      <path id="Path_66" data-name="Path 66" d="M6.662,0A7.028,7.028,0,0,0,0,7.085v9.183a.55.55,0,0,0,.55.55H1.735a.55.55,0,0,0,.55-.55V7.052a4.721,4.721,0,0,1,4.4-4.761,4.637,4.637,0,0,1,4.865,4.627v7.615h0v1.735a.55.55,0,0,0,.55.55h1.188a.55.55,0,0,0,.55-.55V6.918A6.921,6.921,0,0,0,6.662,0" transform="translate(278 9812.362)" fill="#fff"/>
      <path id="Path_67" data-name="Path 67" d="M3.836,0a7.856,7.856,0,0,0-3.8,3.864V0Z" transform="translate(277.97 9812.362)" fill="#24bcff"/>
      <g id="Group_40" data-name="Group 40" transform="translate(278.052 9833.063)">
        <path id="Path_68" data-name="Path 68" d="M2.166,125.322l-.083.14a.1.1,0,0,1-.16.032,1.206,1.206,0,0,0-.569-.16c-.326,0-.626.166-.626.435s.326.4.639.5c.524.179.978.531.978,1.042a.983.983,0,0,1-1.042.933,2.222,2.222,0,0,1-.927-.243.1.1,0,0,1-.051-.153l.09-.192a.1.1,0,0,1,.153-.051,1.669,1.669,0,0,0,.7.185.537.537,0,0,0,.607-.511c0-.275-.243-.435-.735-.627C.779,126.517.3,126.325.3,125.8c0-.5.441-.85,1.042-.85a1.522,1.522,0,0,1,.786.217.1.1,0,0,1,.038.154" transform="translate(-0.299 -123.724)" fill="#039bd7"/>
        <path id="Path_69" data-name="Path 69" d="M29.277,126.6a1.649,1.649,0,1,1-1.649-1.649,1.653,1.653,0,0,1,1.649,1.649m-2.851,0a1.2,1.2,0,1,0,1.2-1.2,1.2,1.2,0,0,0-1.2,1.2" transform="translate(-21.472 -123.724)" fill="#039bd7"/>
        <path id="Path_70" data-name="Path 70" d="M60.626,122.1v.217a.107.107,0,0,1-.115.115h-.058a.853.853,0,0,1-.927-.984v-3.375a.107.107,0,0,1,.115-.115h.217a.107.107,0,0,1,.115.115v3.375a.471.471,0,0,0,.479.537h.09c.051,0,.083.045.083.115" transform="translate(-49.132 -117.958)" fill="#039bd7"/>
        <path id="Path_71" data-name="Path 71" d="M81.327,128.49A1.329,1.329,0,0,1,80,127.16v-1.8a.107.107,0,0,1,.115-.115h.211a.107.107,0,0,1,.115.115v1.8a.885.885,0,1,0,1.771,0v-1.8a.107.107,0,0,1,.115-.115h.217a.107.107,0,0,1,.115.115v1.8a1.333,1.333,0,0,1-1.329,1.33" transform="translate(-66.01 -123.965)" fill="#039bd7"/>
        <path id="Path_72" data-name="Path 72" d="M111.65,123.331v.217a.107.107,0,0,1-.115.115h-.409a1.015,1.015,0,0,1-1.042-1.042v-3.055a.107.107,0,0,1,.115-.115h.217a.107.107,0,0,1,.115.115v.9h1.023a.09.09,0,0,1,.1.1v.2a.09.09,0,0,1-.1.1h-1.023v1.758a.6.6,0,0,0,.594.595h.409a.107.107,0,0,1,.115.115" transform="translate(-90.817 -119.189)" fill="#039bd7"/>
        <path id="Path_73" data-name="Path 73" d="M133.991,120.364a.284.284,0,0,1-.3.294.293.293,0,0,1-.294-.294.306.306,0,0,1,.294-.294.3.3,0,0,1,.3.294m-.185,3.81h-.224a.108.108,0,0,1-.115-.115v-2.966a.108.108,0,0,1,.115-.115h.224a.108.108,0,0,1,.115.115v2.966a.108.108,0,0,1-.115.115" transform="translate(-110.039 -119.699)" fill="#039bd7"/>
        <path id="Path_74" data-name="Path 74" d="M154.653,126.6A1.649,1.649,0,1,1,153,124.951a1.653,1.653,0,0,1,1.649,1.649m-2.851,0a1.2,1.2,0,1,0,1.2-1.2,1.2,1.2,0,0,0-1.2,1.2" transform="translate(-124.845 -123.724)" fill="#039bd7"/>
        <path id="Path_75" data-name="Path 75" d="M187.574,126.28v1.8a.107.107,0,0,1-.115.115h-.217a.108.108,0,0,1-.115-.115v-1.8a.889.889,0,0,0-1.777,0v1.8a.108.108,0,0,1-.115.115h-.217a.107.107,0,0,1-.115-.115v-2.966a.107.107,0,0,1,.115-.115h.166a.107.107,0,0,1,.115.115v.224a1.334,1.334,0,0,1,2.276.94" transform="translate(-152.505 -123.724)" fill="#039bd7"/>
        <path id="Path_76" data-name="Path 76" d="M216.31,125.322l-.083.14a.1.1,0,0,1-.16.032,1.206,1.206,0,0,0-.569-.16c-.326,0-.626.166-.626.435s.326.4.639.5c.524.179.978.531.978,1.042a.983.983,0,0,1-1.042.933,2.222,2.222,0,0,1-.927-.243.1.1,0,0,1-.051-.153l.089-.192a.1.1,0,0,1,.153-.051,1.669,1.669,0,0,0,.7.185.537.537,0,0,0,.607-.511c0-.275-.243-.435-.735-.627-.364-.141-.844-.332-.844-.857,0-.5.441-.85,1.042-.85a1.522,1.522,0,0,1,.786.217.1.1,0,0,1,.038.154" transform="translate(-176.862 -123.724)" fill="#039bd7"/>
        <path id="Path_77" data-name="Path 77" d="M264.353,122.1v.217a.107.107,0,0,1-.115.115h-.058a.853.853,0,0,1-.927-.984v-3.375a.107.107,0,0,1,.115-.115h.217a.107.107,0,0,1,.115.115v3.375a.471.471,0,0,0,.479.537h.09c.051,0,.083.045.083.115" transform="translate(-217.106 -117.958)" fill="#039bd7"/>
        <path id="Path_78" data-name="Path 78" d="M284.319,120.364a.284.284,0,0,1-.3.294.293.293,0,0,1-.294-.294.306.306,0,0,1,.294-.294.294.294,0,0,1,.3.294m-.186,3.81h-.224a.108.108,0,0,1-.115-.115v-2.966a.107.107,0,0,1,.115-.115h.224a.107.107,0,0,1,.115.115v2.966a.107.107,0,0,1-.115.115" transform="translate(-233.984 -119.699)" fill="#039bd7"/>
        <path id="Path_79" data-name="Path 79" d="M307.113,126.28v1.8a.108.108,0,0,1-.115.115h-.217a.107.107,0,0,1-.115-.115v-1.8a.885.885,0,1,0-1.771,0v1.8a.108.108,0,0,1-.115.115h-.211a.108.108,0,0,1-.115-.115v-1.8a.889.889,0,0,0-1.777,0v1.8a.107.107,0,0,1-.115.115h-.217a.107.107,0,0,1-.115-.115v-2.966a.107.107,0,0,1,.115-.115h.173a.107.107,0,0,1,.115.115v.269a1.138,1.138,0,0,1,.933-.435,1.332,1.332,0,0,0,2.218,0,1.333,1.333,0,0,1,1.329,1.329" transform="translate(-249.241 -123.724)" fill="#039bd7"/>
        <path id="Path_80" data-name="Path 80" d="M345.586,120.364a.284.284,0,0,1-.3.294.293.293,0,0,1-.294-.294.306.306,0,0,1,.294-.294.294.294,0,0,1,.3.294m-.185,3.81h-.224a.108.108,0,0,1-.115-.115v-2.966a.107.107,0,0,1,.115-.115h.224a.107.107,0,0,1,.115.115v2.966a.107.107,0,0,1-.115.115" transform="translate(-284.499 -119.699)" fill="#039bd7"/>
        <path id="Path_81" data-name="Path 81" d="M365.062,123.331v.217a.107.107,0,0,1-.115.115h-.409a1.015,1.015,0,0,1-1.042-1.042v-3.055a.107.107,0,0,1,.115-.115h.217a.107.107,0,0,1,.115.115v.9h1.023a.09.09,0,0,1,.1.1v.2a.09.09,0,0,1-.1.1h-1.023v1.758a.6.6,0,0,0,.595.595h.409a.107.107,0,0,1,.115.115" transform="translate(-299.756 -119.189)" fill="#039bd7"/>
        <path id="Path_82" data-name="Path 82" d="M389,126.747H386.37a1.187,1.187,0,0,0,1.17,1.048,1.465,1.465,0,0,0,.972-.415.1.1,0,0,1,.16.013l.128.16a.112.112,0,0,1,0,.16,1.746,1.746,0,0,1-1.259.537,1.664,1.664,0,0,1-1.643-1.707,1.565,1.565,0,0,1,1.6-1.592,1.638,1.638,0,0,1,1.618,1.681.1.1,0,0,1-.115.115m-.371-.377a1.163,1.163,0,0,0-1.132-.99,1.139,1.139,0,0,0-1.125.99Z" transform="translate(-318.226 -123.724)" fill="#039bd7"/>
        <path id="Path_83" data-name="Path 83" d="M421.718,118.073v4.245a.108.108,0,0,1-.115.115h-.16a.108.108,0,0,1-.115-.115v-.409a1.671,1.671,0,0,1-1.253.575,1.649,1.649,0,1,1,1.2-2.781v-1.63a.107.107,0,0,1,.115-.115h.211a.107.107,0,0,1,.115.115m-.441,2.761a1.2,1.2,0,1,0-1.2,1.2,1.2,1.2,0,0,0,1.2-1.2" transform="translate(-345.046 -117.958)" fill="#039bd7"/>
      </g>
      <rect id="Rectangle_67" data-name="Rectangle 67" width="77.897" height="25.227" transform="translate(278 9812.362)" fill="none"/>
    </g>
    <g id="Group_65" data-name="Group 65" transform="translate(-67 -9)">
      <path id="Path_103" data-name="Path 103" d="M1199.728,412.81l.025-17.117a.386.386,0,0,0-.386-.386l-2.519,0a6.148,6.148,0,0,0-.623.03c-.107.01-.211.024-.315.041a6.277,6.277,0,0,0-5.291,5.549,5.966,5.966,0,0,0-.032.62l-.021,15.108a3.122,3.122,0,0,1-2.76,3.1,2.635,2.635,0,0,1-.37.024h-.017c-.243.01-.485.017-.731.016a15.526,15.526,0,0,1-8.636-2.618h0l.021.025a15.62,15.62,0,0,0,21.656-4.388Z" transform="translate(-955.723 -457.259)" fill="#fff"/>
      <path id="Path_104" data-name="Path 104" d="M1186.785,501.727a15.547,15.547,0,0,1-8.612-2.6l12.114,12.81.394.419c.069.069.142.139.214.2s.124.111.19.166a5.413,5.413,0,0,0,.46.344,6.069,6.069,0,0,0,3.17,1.064c.107,0,.215.007.322.007l1.638,0a3.3,3.3,0,0,0,.789-.1,3.059,3.059,0,0,0,.96-.435,3.146,3.146,0,0,0,1.155-1.421v0a3.1,3.1,0,0,0,.226-1.163l.023-16.287A15.607,15.607,0,0,1,1186.785,501.727Z" transform="translate(-955.824 -539.184)" fill="#fff"/>
      <path id="Path_105" data-name="Path 105" d="M1091.021,472.546,1091,489.663a.386.386,0,0,0,.385.386l2.519,0a6.143,6.143,0,0,0,.623-.03c.107-.01.211-.024.315-.041a6.278,6.278,0,0,0,5.291-5.549,6,6,0,0,0,.032-.62l.021-15.108a3.121,3.121,0,0,1,2.76-3.1,2.626,2.626,0,0,1,.37-.024h.017c.243-.01.485-.017.731-.016a15.527,15.527,0,0,1,8.636,2.618h0l-.021-.025a15.62,15.62,0,0,0-21.656,4.388Z" transform="translate(-883.997 -515.141)" fill="#fff"/>
      <path id="Path_106" data-name="Path 106" d="M1104.18,407.465a15.548,15.548,0,0,1,8.613,2.6l-12.115-12.81-.394-.419c-.069-.069-.142-.139-.214-.2s-.125-.111-.19-.166a5.51,5.51,0,0,0-.46-.344,6.07,6.07,0,0,0-3.17-1.064c-.107,0-.215-.007-.322-.007l-1.638,0a3.3,3.3,0,0,0-.789.1,3.059,3.059,0,0,0-.96.435,3.144,3.144,0,0,0-1.155,1.421v0a3.091,3.091,0,0,0-.227,1.163l-.023,16.287A15.607,15.607,0,0,1,1104.18,407.465Z" transform="translate(-884.112 -457.052)" fill="#fff"/>
    </g>
  </g>
</svg>
